<?xml version="1.0" encoding="UTF-8" standalone="no"?>
<svg
   xmlns:dc="http://purl.org/dc/elements/1.1/"
   xmlns:cc="http://creativecommons.org/ns#"
   xmlns:rdf="http://www.w3.org/1999/02/22-rdf-syntax-ns#"
   xmlns:svg="http://www.w3.org/2000/svg"
   xmlns="http://www.w3.org/2000/svg"
   id="svg2679"
   version="1.1"
   viewBox="0 0 49.546022 34.434131">
  <defs
     id="defs2673" />
  <metadata
     id="metadata2676">
    <rdf:RDF>
      <cc:Work
         rdf:about="">
        <dc:format>image/svg+xml</dc:format>
        <dc:type
           rdf:resource="http://purl.org/dc/dcmitype/StillImage" />
        <dc:title></dc:title>
      </cc:Work>
    </rdf:RDF>
  </metadata>
  <g
     transform="translate(-32.82357,-154.96807)"
     id="layer1">
    <g
       id="g3227"
       transform="translate(329.9288,-7.4570862)">
      <rect
         transform="matrix(0.8660254,0.5,-0.8660254,0.5,0,0)"
         y="324.51193"
         x="12.09633"
         height="30.551453"
         width="26.458334"
         id="rect1289"
         style="color:#000000;clip-rule:nonzero;display:inline;overflow:visible;visibility:visible;opacity:1;isolation:auto;mix-blend-mode:normal;color-interpolation:sRGB;color-interpolation-filters:linearRGB;solid-color:#000000;solid-opacity:1;fill:none;fill-opacity:1;fill-rule:nonzero;stroke:#ffffff;stroke-width:0.14215665;stroke-linecap:round;stroke-linejoin:round;stroke-miterlimit:4;stroke-dasharray:none;stroke-dashoffset:0;stroke-opacity:1;color-rendering:auto;image-rendering:auto;shape-rendering:auto;text-rendering:auto;enable-background:accumulate" />
      <path
         style="color:#000000;clip-rule:nonzero;display:inline;overflow:visible;visibility:visible;opacity:1;isolation:auto;mix-blend-mode:normal;color-interpolation:sRGB;color-interpolation-filters:linearRGB;solid-color:#000000;solid-opacity:1;fill:none;fill-opacity:1;fill-rule:nonzero;stroke:#ffffff;stroke-width:0.80633211;stroke-linecap:round;stroke-linejoin:round;stroke-miterlimit:4;stroke-dasharray:none;stroke-dashoffset:0;stroke-opacity:1;color-rendering:auto;image-rendering:auto;shape-rendering:auto;text-rendering:auto;enable-background:accumulate"
         d="m -277.87871,162.82921 c -0.30156,-0.006 -0.60291,0.0183 -0.89976,0.0713 -2.35395,0.42592 -3.96891,2.61187 -3.68413,4.98708 0.0721,0.59281 0.26067,1.16571 0.55541,1.68509 l 0.0325,0.062 0.004,0.004 3.89829,6.75198 3.93405,-6.81813 c 0.38417,-0.67798 0.58592,-1.44442 0.5869,-2.2237 l -0.128,-1.06882 c -0.4846,-1.99178 -2.2479,-3.40802 -4.29732,-3.45107 z m -0.10077,2.17333 a 2.3232025,2.3232025 0 0 1 2.32244,2.32345 2.3232025,2.3232025 0 0 1 -2.32244,2.32346 2.3232025,2.3232025 0 0 1 -2.32344,-2.32346 2.3232025,2.3232025 0 0 1 2.32344,-2.32345 z"
         id="path1285" />
      <path
         style="fill:none;fill-rule:evenodd;stroke:#ffffff;stroke-width:0.5291667;stroke-linecap:butt;stroke-linejoin:miter;stroke-miterlimit:4;stroke-dasharray:2.11666667, 2.11666667;stroke-dashoffset:0;stroke-opacity:1"
         d="m -295.68234,183.59703 c 0,0 8.03353,-3.43391 14.02037,0.5885 5.98683,4.0224 11.88011,6.73519 18.33468,2.80633 10.22676,-7.38523 -0.75837,-14.57243 -7.76418,-12.62849 -3.74177,1.12253 -6.91849,1.96224 -6.91849,1.96224"
         id="path1857" />
    </g>
  </g>
</svg>
