<?xml version="1.0" encoding="UTF-8" standalone="no"?>
<svg
   xmlns:dc="http://purl.org/dc/elements/1.1/"
   xmlns:cc="http://creativecommons.org/ns#"
   xmlns:rdf="http://www.w3.org/1999/02/22-rdf-syntax-ns#"
   xmlns:svg="http://www.w3.org/2000/svg"
   xmlns="http://www.w3.org/2000/svg"
   id="svg834"
   version="1.1"
   viewBox="0 0 1920.0001 72.178744"
   height="272.80154"
   width="7256.6934">
  <defs
     id="defs828" />
  <metadata
     id="metadata831">
    <rdf:RDF>
      <cc:Work
         rdf:about="">
        <dc:format>image/svg+xml</dc:format>
        <dc:type
           rdf:resource="http://purl.org/dc/dcmitype/StillImage" />
        <dc:title></dc:title>
      </cc:Work>
    </rdf:RDF>
  </metadata>
  <g
     transform="translate(910.86315,-114.25586)"
     id="layer1">
    <path
       id="path3460"
       d="m 677.11015,186.43337 c 0.8976,-0.006 1.794,-0.0426 2.6888,-0.11729 -4.0707,-1.00883 -8.1474,-2.03182 -11.2149,-4.577 -2.2488,-1.866 6.0113,-0.42217 9.0129,-0.27284 3.7744,0.18777 7.505,1.71466 11.2562,1.28106 24.1539,-2.79173 16.6594,-3.67475 10.1849,-3.91811 -8.8483,-0.0179 -4.6944,-0.17643 0,0 2.9941,0.006 7.4679,-0.004 13.9221,-0.0496 22.5768,-3.42834 13.7723,-3.07793 47.208,1.91823 1.0671,-1.12874 2.036,-2.05319 2.7626,-2.54921 8.788,-5.99837 20.0507,-8.74043 30.4581,-10.59315 17.3065,-3.08094 24.6084,-2.44168 42.3783,-2.70216 13.7706,1.036 27.7106,0.35324 40.998,2.23552 8.2198,-4.77322 31.7687,-6.92497 38.2241,-7.83104 8.0707,-2.54169 15.7533,-6.70451 24.2119,-7.62486 9.3762,-1.02018 18.8544,1.00978 28.2438,1.91719 29.2081,2.82279 21.3906,2.93677 41.69205,6.17948 V 114.25586 H -910.86315 v 20.28817 c 0.8076,-0.0539 1.6176,-0.10789 2.5197,-0.15761 51.73481,-2.85162 28.0969,-1.35488 57.5577,4.55684 25.69921,5.15686 2.24431,-1.76908 24.82591,5.59036 1.3035,0.2454 2.4045,0.4677 3.4303,0.67593 2.3624,-1.13686 4.9472,-2.28656 5.6736,-2.7523 -0.2732,-0.009 -0.5773,-0.0208 -0.84441,-0.0289 1.08741,-0.27909 1.24491,-0.22781 0.84441,0.0289 5.6544,0.18817 12.51689,0.54816 17.95439,-0.22479 3.6692,-0.52155 7.1071,-2.19626 10.8014,-2.52543 12.2707,-1.09325 24.6278,-1.04097 36.9322,-1.72701 4.4069,-0.24575 8.7936,-1.39076 13.195,-1.06818 3.9055,0.28626 7.5641,1.91106 11.3461,2.8665 3.8714,0.2467 7.7792,0.18682 11.6143,0.74001 3.3461,0.48266 6.4546,2.37271 9.8402,2.3549 4.1549,-0.0219 8.0348,-2.70529 12.1822,-2.47065 3.3576,0.18997 5.9639,3.22061 9.2909,3.68556 3.5918,0.50197 7.2366,-0.58028 10.8551,-0.87024 l 10.3519,2.07947 c 5.8048,0.0243 9.0306,-0.008 10.6422,-0.0419 1.3855,-0.0916 2.1959,-0.046 0,0 -3.0092,0.19886 -8.7418,1.05275 7.62441,4.01733 3.0544,0.5533 6.19439,-0.75925 9.30478,-0.68937 8.55541,0.19222 16.48661,3.59698 25.07081,3.39516 17.0003,1.01941 -4.68339,-0.41437 -12.83539,0.44751 -2.0429,0.21598 3.9946,0.91305 6.0043,1.3198 1.63211,0.33041 3.2917,0.5389 4.9186,0.8909 7.35021,1.59015 1.9581,1.16705 9.5436,1.2201 13.3476,-6.34177 2.36109,-2.00715 33.1788,-1.71929 2.25989,0.0211 4.66911,0.53928 6.7759,-0.22635 26.3221,-9.56603 -7.2232,-3.08776 22.64609,-10.10065 4.59441,-1.07876 9.35961,-1.37284 14.0395,-2.05931 4.69699,1.43616 9.39412,2.87208 14.0911,4.30827 -3.79161,0.0916 -14.58528,-1.61483 -11.37499,0.2749 4.27231,2.51481 10.1141,0.71792 15.0104,1.86502 4.70339,1.10186 8.8021,4.15933 13.59609,4.8369 15.9413,2.25306 10.99492,-0.70538 8.08482,-2.06396 -2.30071,-0.9249 -1.43391,-0.66942 0,0 1.49738,0.60195 4.29059,1.68645 9.28827,3.53415 2.2556,0.66103 4.42953,1.65425 6.76701,1.98284 1.93241,0.27164 3.9124,-0.0372 5.85812,-0.20826 9.18919,-0.80767 18.3964,-1.51804 27.53518,-2.72698 2.066,-0.27326 3.90081,-1.71109 5.98731,-1.70738 2.0342,0.004 3.8336,2.15455 5.81621,1.72857 3.8794,-0.83351 7.02929,-3.49617 10.54399,-5.24412 4.14059,-1.14578 8.10781,-3.26686 12.422,-3.43699 0.063,-0.002 0.1315,5.3e-4 0.1969,5.3e-4 -0.096,-0.0471 -0.19441,-0.0899 -0.2899,-0.13849 -3.89411,-1.98252 10.6394,-0.92853 13.0116,2.57556 0.31779,0.46943 0.39208,0.76322 0.2749,0.92242 0.8168,0.14438 1.6311,0.29305 2.43599,0.45786 14.80201,3.03099 11.80222,2.38514 25.4254,1.01854 9.05402,1.47145 11.152,2.34199 20.0251,1.90738 2.90261,-0.14219 5.7445,-0.93652 8.64909,-1.0351 10.94071,-0.37121 21.92232,0.36941 32.84141,-0.37259 7.27242,-0.49419 13.77021,-5.28243 21.35791,-4.41986 4.2396,0.0243 8.5018,0.47987 12.7191,0.0729 6.38519,-0.61629 26.15338,-6.16886 32.82225,-2.75333 3.53349,1.8097 -14.94848,0.0803 -11.80187,2.43345 1.93204,1.44489 27.85242,0.93864 30.84928,0.91829 7.12166,0.38849 19.0373,0.95954 26.20719,1.65725 4.38396,0.42661 8.7168,1.90098 13.11238,1.59628 4.07228,-0.28228 7.64852,-3.11036 11.72588,-3.31814 17.46488,-0.88995 34.98033,1.39629 52.46556,0.79841 0.17404,0.0103 28.606695,1.7014 28.735175,1.69963 5.36673,-0.0738 10.71431,-1.85201 16.04503,-1.26659 4.77625,0.52454 9.10309,2.91132 13.59349,4.5217 13.79334,4.9466 10.57421,3.74621 22.29578,10.27018 4.56591,0.85079 9.19734,1.43695 13.69841,2.54971 1.60266,0.39621 3.04993,1.56876 4.70617,1.50429 2.5490199,-0.0992 4.8417599,-1.57285 7.3566599,-1.97403 2.21382,-0.35314 4.48772999,-0.1823 6.73137,-0.27337 2.68478,-0.47249 5.36953,-0.94501 8.0542801,-1.41748 3.12232,-0.59087 6.18279,-1.68175 9.36686,-1.7725 3.38109,-0.0964 12.7045,3.1971 10.06398,1.21904 -4.18473,-3.13489 -12.0774,-0.92781 -15.15618,-5.0338 -2.56029,-3.4145 8.70316,1.91463 13.1377,2.34199 28.51465,2.74785 19.51707,1.14331 12.1321,0.0279 -9.39837,-1.30415 -5.10569,-0.77115 0,0 3.2062,0.44493 7.95653,1.09681 14.87094,2.03348 28.67959,-3.96422 -6.93248,-1.0346 22.93657,3.5605 10.0648,1.5484 20.37629,0.91284 30.564485,1.36943 2.1567,1.76898 3.85,4.21632 6.4705,5.30717 8.1284,3.38373 7.6698,3.28991 10.3771,0.26665 -1.85,-1.56295 -3.3099,-1.65777 -0.5896,-3.70882 1.3419,-1.01182 6.1027,-1.97737 4.456,-2.45309 -5.4397,-1.57152 -12.3869,1.8981 -17.033,-1.18028 -5.3846,-3.56764 25.9394,-10.32727 19.5921,-2.6422 4.184,-0.15127 8.3823,-0.0927 12.5516,-0.45374 4.3368,-0.37544 8.576,-1.8016 12.931,-1.75233 4.7023,0.0532 9.2349,2.16273 13.9361,2.05621 12.5935,-0.28541 25.0396,-2.97636 37.6339,-3.22461 7.4502,-0.14687 14.3854,4.65444 21.9857,3.78684 3.4742,-0.0348 6.9555,0.11129 10.4221,-0.1044 3.4886,-0.21704 6.9541,-1.6792 10.4113,-1.19166 29.0503,4.09663 -12.5237,4.10155 15.3644,4.62712 1.2637,0.0238 3.5343,-0.012 5.593,-0.0832 -3.7039,-0.17721 -7.4078,-0.3561 -11.112,-0.52657 4.9378,0.0131 9.9098,-0.50239 14.8136,0.0393 1.828,0.20193 -0.7035,0.3836 -3.7016,0.4873 7.825,0.37447 15.6502,0.74792 23.4781,1.06506 3.5205,0.14264 7.0686,-0.15055 10.5679,0.23773 3.0667,0.34028 5.9546,1.67931 9.0304,1.93732 2.5143,0.21096 5.1277,-1.20956 7.5504,-0.5462 17.2588,4.72575 -5.6846,3.25012 6.4963,3.68401 2.4309,-1.52678 4.466,-3.86638 7.2926,-4.5806 2.1252,-0.537 4.3001,1.17517 6.4998,1.09553 3.0023,-0.10869 5.8814,-1.15728 8.8393,-1.65052 3.2686,-0.54512 13.1193,-0.99851 9.8366,-1.46399 -5.055,-0.71684 -10.2906,1.54157 -15.321,0.68625 -3.4699,-0.59 6.9705,-1.00912 10.4557,-1.51361 3.6226,-0.5045 7.2162,-1.77516 10.8681,-1.5136 32.2118,2.30709 -6.6535,4.21373 23.9179,4.9656 14.478,0.35607 28.4368,-11.24572 43.4449,-0.54571 3.5058,0.33121 6.6221,2.25513 9.9332,3.38273 3.1606,0.25264 6.3484,0.29744 9.4821,0.75758 2.0446,0.3002 14.8827,3.40233 17.0569,3.78116 3.2122,0.55967 12.1432,1.13939 15.0476,1.86449 0.914,0.22815 1.7872,0.56483 2.6474,0.93742 5.7032,-1.85232 11.9541,-2.37363 17.9881,-2.55593 2.4595,-0.0743 -4.1116,2.6666 -6.4684,3.32899 -2.5932,0.72882 -5.3885,0.5071 -8.0827,0.76068 -1.1605,-0.47134 -2.2865,-1.0354 -3.437,-1.53374 -1.0968,0.35623 -2.1755,0.75628 -3.2262,1.21851 -2.2212,0.97723 4.431,2.11545 6.8415,2.54921 9.8348,1.76977 8.8862,0.28337 17.0119,-4.65243 19.3157,-2.22081 18.3587,-2.76273 46.1553,0.69506 2.9278,0.3642 5.1543,3.22658 8.1049,3.35068 3.2971,0.13867 6.2005,-2.67383 9.5002,-2.61017 2.067,0.0399 3.583,1.93135 5.3744,2.89698 1.8723,-0.27339 3.7443,-0.54671 5.6167,-0.8201 2.4569,-0.34735 4.8928,-0.87419 7.3711,-1.0423 0.084,-0.006 0.1867,-0.007 0.2806,-0.0109 -5.3351,-0.73348 -12.2953,-1.75262 -8.9199,-2.24224 5.5007,-0.79788 11.1617,0.86165 16.5236,2.26034 2.4506,0.63918 -4.7613,-0.12942 -7.6037,-0.0181 1.5436,0.21223 2.9749,0.40402 3.9512,0.5478 4.1037,0.6042 8.2697,1.036 12.4225,0.93379 3.6748,-0.0905 7.2733,-1.00563 10.9099,-1.50844 11.7763,0.50633 23.6637,-0.075 35.3286,1.51929 2.7739,0.37912 4.4262,3.37904 7.0611,4.27466 2.0866,0.70924 4.4312,0.26485 6.6476,0.38447 2.4353,0.13147 4.8833,0.31887 7.3246,0.30128 z M -388.75964,148.25431 c -1.08021,-0.19095 -2.1654,-0.37486 -3.2489,-0.5674 1.7027,0.58592 2.98119,0.93115 3.2489,0.5674 z m -3.2489,-0.5674 c -2.98482,-1.02714 -7.27231,-2.79064 -9.7477,-2.79209 3.0126,1.4733 6.3626,2.19043 9.7477,2.79209 z m -417.06811,-1.20459 c 1.3717,-0.11912 2.6852,-0.27303 1.8614,-0.19688 -0.6206,0.0574 -1.2412,0.12499 -1.8614,0.19688 z"
       style="color:#000000;clip-rule:nonzero;display:inline;overflow:visible;visibility:visible;opacity:1;isolation:auto;mix-blend-mode:normal;color-interpolation:sRGB;color-interpolation-filters:linearRGB;solid-color:#000000;solid-opacity:1;fill:#ffffff;fill-opacity:1;fill-rule:nonzero;stroke:none;stroke-width:0.64458698;stroke-linecap:butt;stroke-linejoin:round;stroke-miterlimit:4;stroke-dasharray:none;stroke-dashoffset:0;stroke-opacity:1;paint-order:markers fill stroke;color-rendering:auto;image-rendering:auto;shape-rendering:auto;text-rendering:auto;enable-background:accumulate" />
  </g>
</svg>
