<?xml version="1.0" encoding="UTF-8" standalone="no"?>
<svg
   xmlns:dc="http://purl.org/dc/elements/1.1/"
   xmlns:cc="http://creativecommons.org/ns#"
   xmlns:rdf="http://www.w3.org/1999/02/22-rdf-syntax-ns#"
   xmlns:svg="http://www.w3.org/2000/svg"
   xmlns="http://www.w3.org/2000/svg"
   id="svg834"
   version="1.1"
   viewBox="0 0 1920.0001 72.178752"
   height="272.80157"
   width="7256.6934">
  <defs
     id="defs828" />
  <metadata
     id="metadata831">
    <rdf:RDF>
      <cc:Work
         rdf:about="">
        <dc:format>image/svg+xml</dc:format>
        <dc:type
           rdf:resource="http://purl.org/dc/dcmitype/StillImage" />
        <dc:title></dc:title>
      </cc:Work>
    </rdf:RDF>
  </metadata>
  <g
     transform="translate(846.68639,-428.30554)"
     id="layer1">
    <path
       style="color:#000000;clip-rule:nonzero;display:inline;overflow:visible;visibility:visible;opacity:1;isolation:auto;mix-blend-mode:normal;color-interpolation:sRGB;color-interpolation-filters:linearRGB;solid-color:#000000;solid-opacity:1;fill:#ffffff;fill-opacity:1;fill-rule:nonzero;stroke:none;stroke-width:0.64458698;stroke-linecap:butt;stroke-linejoin:round;stroke-miterlimit:4;stroke-dasharray:none;stroke-dashoffset:0;stroke-opacity:1;paint-order:markers fill stroke;color-rendering:auto;image-rendering:auto;shape-rendering:auto;text-rendering:auto;enable-background:accumulate"
       d="m 741.28691,428.30677 c 0.8976,0.006 1.79401,0.0426 2.6888,0.11729 -4.07069,1.00883 -8.14739,2.03182 -11.21489,4.577 -2.2488,1.866 6.01131,0.42217 9.0129,0.27284 3.77441,-0.18777 7.50501,-1.71466 11.25619,-1.28106 24.15392,2.79173 16.65941,3.67475 10.1849,3.91811 -8.8483,0.0179 -4.69439,0.17643 0,0 2.99411,-0.006 7.46792,0.004 13.92211,0.0496 22.57679,3.42834 13.77231,3.07793 47.20799,-1.91823 1.06712,1.12874 2.03602,2.05319 2.76262,2.54921 8.78801,5.99837 20.05068,8.74043 30.4581,10.59315 17.3065,3.08094 24.60839,2.44168 42.37831,2.70216 13.77058,-1.036 27.71058,-0.35324 40.99798,-2.23552 8.21981,4.77322 31.76871,6.92497 38.22412,7.83104 8.07069,2.5417 15.75329,6.70451 24.21186,7.62486 9.3762,1.02019 18.8544,-1.00977 28.2438,-1.91718 29.2081,-2.8228 21.3906,-2.93678 41.6921,-6.17949 v 45.47374 H -846.68639 v -20.28818 c 0.8076,0.0539 1.6176,0.10789 2.5197,0.15761 51.7348,2.85163 28.0969,1.35489 57.5577,-4.55683 25.6992,-5.15687 2.2443,1.76907 24.8259,-5.59037 1.3035,-0.2454 2.4045,-0.4677 3.4303,-0.67593 2.3624,1.13687 4.9472,2.28656 5.6736,2.75231 -0.2732,0.009 -0.5773,0.0208 -0.8444,0.0289 1.0874,0.27909 1.2449,0.22781 0.8444,-0.0289 5.6544,-0.18818 12.5169,-0.54817 17.9544,0.22479 3.6692,0.52154 7.1071,2.19625 10.8014,2.52542 12.2707,1.09326 24.6278,1.04097 36.9322,1.72701 4.4069,0.24575 8.7936,1.39077 13.195,1.06819 3.9055,-0.28627 7.5641,-1.91107 11.3461,-2.86651 3.8714,-0.2467 7.7792,-0.18682 11.6143,-0.74001 3.34611,-0.48265 6.4546,-2.37271 9.84021,-2.3549 4.15489,0.0219 8.03479,2.70529 12.1822,2.47065 3.35759,-0.18996 5.96389,-3.22061 9.29089,-3.68555 3.59181,-0.50197 7.23661,0.58027 10.8551,0.87023 l 10.3519,-2.07947 c 5.8048,-0.0243 9.0306,0.008 10.64221,0.0419 1.3855,0.0916 2.19589,0.046 0,0 -3.0092,-0.19886 -8.7418,-1.05275 7.6244,-4.01733 3.0544,-0.5533 6.1944,0.75926 9.30479,0.68937 8.5554,-0.19222 16.48661,-3.59698 25.0708,-3.39516 17.0003,-1.01941 -4.68339,0.41438 -12.83539,-0.4475 -2.0429,-0.21599 3.9946,-0.91306 6.0043,-1.3198 1.63211,-0.33042 3.29171,-0.53891 4.9186,-0.89091 7.35021,-1.59015 1.95811,-1.16705 9.5436,-1.2201 13.3476,6.34177 2.36109,2.00715 33.17881,1.71929 2.25988,-0.0211 4.6691,-0.53928 6.7759,0.22635 26.3221,9.56603 -7.22321,3.08776 22.64608,10.10065 4.59441,1.07876 9.35961,1.37285 14.03951,2.05932 4.69699,-1.43617 9.39411,-2.87209 14.0911,-4.30828 -3.79161,-0.0916 -14.58529,1.61484 -11.375,-0.2749 4.27231,-2.5148 10.1141,-0.71792 15.0104,-1.86501 4.70339,-1.10186 8.8021,-4.15934 13.59609,-4.83691 15.9413,-2.25305 10.99492,0.70538 8.08482,2.06396 -2.30071,0.9249 -1.43391,0.66942 0,0 1.49738,-0.60194 4.29059,-1.68645 9.28828,-3.53415 2.2556,-0.66103 4.42952,-1.65425 6.76701,-1.98283 1.93241,-0.27164 3.91239,0.0372 5.85811,0.20825 9.18919,0.80767 18.3964,1.51804 27.53519,2.72698 2.066,0.27326 3.9008,1.71109 5.98731,1.70739 2.03419,-0.004 3.8336,-2.15455 5.8162,-1.72858 3.8794,0.83351 7.02929,3.49617 10.54399,5.24413 4.1406,1.14577 8.10781,3.26685 12.422,3.43698 0.063,0.002 0.1315,-5.3e-4 0.19691,-5.3e-4 -0.096,0.0471 -0.19442,0.0899 -0.28991,0.13849 -3.89411,1.98252 10.6394,0.92853 13.0116,-2.57556 0.31779,-0.46943 0.39209,-0.76322 0.2749,-0.92242 0.8168,-0.14438 1.63111,-0.29305 2.436,-0.45786 14.80201,-3.03099 11.80221,-2.38514 25.4254,-1.01854 9.05401,-1.47145 11.152,-2.34199 20.02509,-1.90738 2.90261,0.14219 5.7445,0.93652 8.6491,1.0351 10.94071,0.37121 21.92232,-0.36941 32.84141,0.37259 7.27241,0.49419 13.77021,5.28243 21.3579,4.41986 4.23961,-0.0243 8.50181,-0.47987 12.71911,-0.0729 6.38519,0.61629 26.15337,6.16886 32.82225,2.75333 3.53348,-1.8097 -14.94849,-0.0803 -11.80187,-2.43345 1.93204,-1.44489 27.85242,-0.93864 30.84927,-0.91829 7.12166,-0.38849 19.0373,-0.95954 26.2072,-1.65725 4.38396,-0.42661 8.7168,-1.90098 13.11238,-1.59628 4.07228,0.28228 7.64852,3.11036 11.725883,3.31814 17.46488,0.88995 34.98032,-1.39629 52.46555,-0.79841 0.17404,-0.0103 28.606699,-1.7014 28.73518,-1.69963 5.366729,0.0738 10.7143033,1.85201 16.04502233,1.26659 4.77625797,-0.52454 9.10309497,-2.91132 13.59349767,-4.5217 13.793338,-4.9466 10.574205,-3.74621 22.295776,-10.27018 4.565915,-0.85079 9.19734,-1.43695 13.698406,-2.54971 1.60266,-0.39621 3.049931,-1.56876 4.70617,-1.50429 2.549022,0.0992 4.841769,1.57285 7.35666,1.97403 2.213822,0.35314 4.487731,0.1823 6.731371,0.27337 2.68478,0.47249 5.369533,0.94501 8.054287,1.41748 3.122321,0.59087 6.182783,1.68175 9.366858,1.7725 3.381084,0.0964 12.704498,-3.1971 10.063983,-1.21904 -4.184729,3.13489 -12.077409,0.92781 -15.15618,5.0338 -2.560294,3.4145 8.703151,-1.91463 13.1377,-2.34199 28.514646,-2.74785 19.517066,-1.14331 12.132096,-0.0279 -9.398368,1.30415 -5.105688,0.77115 0,0 3.2062,-0.44493 7.95653,-1.09681 14.87094,-2.03348 28.67959,3.96422 -6.93248,1.0346 22.93657,-3.5605 10.0648,-1.5484 20.37627,-0.91284 30.56453,-1.36943 2.1567,-1.76898 3.84995,-4.21632 6.47041,-5.30717 8.12848,-3.38373 7.66987,-3.28991 10.37714,-0.26665 -1.84996,1.56295 -3.30985,1.65777 -0.58962,3.70882 1.34189,1.01182 6.10272,1.97737 4.45606,2.45309 -5.43978,1.57152 -12.38695,-1.8981 -17.03306,1.18028 -5.38456,3.56764 25.93946,10.32727 19.59208,2.6422 4.18404,0.15127 8.38232,0.0927 12.55168,0.45374 4.33681,0.37544 8.57599,1.8016 12.93101,1.75233 4.7023,-0.0532 9.23483,-2.16273 13.93608,-2.05621 12.59347,0.28541 25.03955,2.97636 37.63391,3.22461 7.45013,0.14687 14.38537,-4.65444 21.98571,-3.78684 3.47411,0.0348 6.9555,-0.11129 10.42209,0.1044 3.48856,0.21704 6.95405,1.6792 10.41125,1.19166 29.05035,-4.09663 -12.52371,-4.10155 15.36446,-4.62712 1.26365,-0.0238 3.53431,0.012 5.59292,0.0832 -3.70387,0.17721 -7.40777,0.3561 -11.11197,0.52657 4.93779,-0.0131 9.90981,0.50239 14.81357,-0.0393 1.82806,-0.20193 -0.70342,-0.38361 -3.7016,-0.4873 7.82506,-0.37447 15.65027,-0.74793 23.47818,-1.06506 3.52044,-0.14264 7.0686,0.15055 10.56783,-0.23773 3.0667,-0.34028 5.95463,-1.67931 9.03044,-1.93733 2.51431,-0.21095 5.1277,1.20957 7.55044,0.54621 17.25879,-4.72575 -5.6846,-3.25012 6.49626,-3.68401 2.43094,1.52678 4.46595,3.86638 7.29258,4.5806 2.12524,0.537 4.30011,-1.17517 6.49986,-1.09553 3.00228,0.10869 5.88134,1.15728 8.83925,1.65052 3.26858,0.54512 13.11929,0.99851 9.8366,1.46399 -5.055,0.71684 -10.2906,-1.54157 -15.32102,-0.68625 -3.46985,0.59 6.97051,1.00912 10.45573,1.51361 3.6226,0.5045 7.21619,1.77516 10.86808,1.5136 32.2118,-2.30709 -6.65351,-4.21373 23.91791,-4.9656 14.478,-0.35607 28.43681,11.24572 43.4449,0.54571 3.50581,-0.33121 6.6221,-2.25513 9.9332,-3.38273 3.1606,-0.25265 6.34841,-0.29744 9.48211,-0.75758 2.04459,-0.3002 14.88268,-3.40233 17.05689,-3.78116 3.2122,-0.55967 12.14319,-1.1394 15.0476,-1.86449 0.914,-0.22815 1.78721,-0.56483 2.64739,-0.93742 5.7032,1.85232 11.95412,2.37363 17.9881,2.55593 2.45951,0.0743 -4.1116,-2.66661 -6.4684,-3.32899 -2.59318,-0.72882 -5.38848,-0.5071 -8.08268,-0.76068 -1.16052,0.47133 -2.2865,1.0354 -3.43702,1.53374 -1.0968,-0.35624 -2.17548,-0.75629 -3.22619,-1.21851 -2.22121,-0.97724 4.431,-2.11545 6.84149,-2.54921 9.8348,-1.76977 8.88621,-0.28337 17.01191,4.65243 19.3157,2.22081 18.3587,2.76273 46.15529,-0.69506 2.9278,-0.3642 5.1543,-3.22659 8.10491,-3.35068 3.2971,-0.13867 6.20051,2.67383 9.5002,2.61017 2.06701,-0.0399 3.58299,-1.93136 5.37441,-2.89698 1.87229,0.27339 3.7443,0.54671 5.6167,0.8201 2.4569,0.34735 4.89278,0.87419 7.37108,1.0423 0.084,0.006 0.18672,0.007 0.28062,0.0109 -5.33511,0.73348 -12.29532,1.75262 -8.9199,2.24224 5.50069,0.79787 11.16169,-0.86165 16.5236,-2.26034 2.4506,-0.63918 -4.76131,0.12941 -7.6037,0.0181 1.54358,-0.21223 2.9749,-0.40402 3.95118,-0.5478 4.10372,-0.6042 8.26971,-1.036 12.42251,-0.93379 3.6748,0.0905 7.27331,1.00563 10.90991,1.50844 11.77628,-0.50633 23.66369,0.075 35.32859,-1.51929 2.77389,-0.37912 4.42619,-3.37904 7.0611,-4.27466 2.08661,-0.70924 4.43121,-0.26485 6.6476,-0.38447 2.4353,-0.13147 4.88331,-0.31887 7.32459,-0.30128 z m -1065.86979,38.17906 c -1.08021,0.19095 -2.1654,0.37486 -3.24889,0.5674 1.7027,-0.58592 2.98119,-0.93115 3.24889,-0.5674 z m -3.24889,0.5674 c -2.98482,1.02715 -7.27232,2.79064 -9.7477,2.79209 3.01259,-1.4733 6.36259,-2.19043 9.7477,-2.79209 z m -417.06812,1.20459 c 1.3717,0.11912 2.6852,0.27304 1.8614,0.19689 -0.6206,-0.0574 -1.2412,-0.125 -1.8614,-0.19689 z"
       id="path3458" />
  </g>
</svg>
