<?xml version="1.0" encoding="UTF-8" standalone="no"?>
<svg
   xmlns:dc="http://purl.org/dc/elements/1.1/"
   xmlns:cc="http://creativecommons.org/ns#"
   xmlns:rdf="http://www.w3.org/1999/02/22-rdf-syntax-ns#"
   xmlns:svg="http://www.w3.org/2000/svg"
   xmlns="http://www.w3.org/2000/svg"
   id="svg834"
   version="1.1"
   viewBox="0 0 1920.0001 72.178389"
   height="272.8002"
   width="7256.6934">
  <defs
     id="defs828" />
  <metadata
     id="metadata831">
    <rdf:RDF>
      <cc:Work
         rdf:about="">
        <dc:format>image/svg+xml</dc:format>
        <dc:type
           rdf:resource="http://purl.org/dc/dcmitype/StillImage" />
        <dc:title></dc:title>
      </cc:Work>
    </rdf:RDF>
  </metadata>
  <g
     transform="translate(1096.8186,-271.96104)"
     id="layer1">
    <path
       id="path3451"
       d="m -764.79184,271.96191 c -0.89758,0.006 -1.79391,0.0426 -2.68873,0.11729 4.07062,1.00883 8.1474,2.03182 11.21482,4.577 2.24885,1.86601 -6.01126,0.42217 -9.01287,0.27284 -3.77434,-0.18777 -7.50504,-1.71466 -11.25617,-1.28106 -24.15395,2.79173 -16.65941,3.67475 -10.1849,3.91811 8.84827,0.018 4.69445,0.17643 0,0 -2.99411,-0.006 -7.46794,0.004 -13.92216,0.0496 -22.57674,3.42834 -13.77228,3.07793 -47.20797,-1.91823 -1.06705,1.12874 -2.03594,2.0532 -2.76263,2.54921 -8.78796,5.99837 -20.0507,8.74043 -30.45809,10.59315 -17.30649,3.08094 -24.60834,2.44168 -42.37829,2.70216 -13.7706,-1.036 -27.71052,-0.35324 -40.99801,-2.23552 -8.21981,4.77322 -31.76868,6.92497 -38.22406,7.83104 -8.0707,2.54169 -15.7533,6.70451 -24.2119,7.62486 -9.3762,1.02018 -18.8544,-1.00978 -28.2438,-1.91719 -29.2081,-2.82279 -21.3906,-2.93677 -41.692,-6.17948 v 45.47373 H 823.18158 v -20.28817 c -0.8076,0.0539 -1.6177,0.10789 -2.5198,0.15761 -51.7348,2.85163 -28.0969,1.35488 -57.5577,-4.55684 -25.69911,-5.15686 -2.2443,1.76908 -24.82588,-5.59036 -1.3035,-0.2454 -2.40448,-0.4677 -3.4303,-0.67593 -2.36238,1.13687 -4.94715,2.28656 -5.67354,2.75231 0.27319,0.009 0.5773,0.0209 0.84439,0.0289 -1.08741,0.27909 -1.24489,0.22781 -0.84439,-0.0289 -5.65441,-0.18818 -12.51696,-0.54817 -17.95446,0.22479 -3.66919,0.52154 -7.10711,2.19625 -10.80141,2.52542 -12.27071,1.09326 -24.62781,1.04097 -36.93213,1.72701 -4.40698,0.24575 -8.79363,1.39076 -13.19506,1.06818 -3.90549,-0.28626 -7.56406,-1.91106 -11.34607,-2.8665 -3.87139,-0.2467 -7.77918,-0.18682 -11.61428,-0.74001 -3.34608,-0.48265 -6.45462,-2.37271 -9.84023,-2.3549 -4.15488,0.022 -8.03479,2.70529 -12.18218,2.47065 -3.35762,-0.18997 -5.96392,-3.22061 -9.29093,-3.68556 -3.59179,-0.50197 -7.23664,0.58028 -10.85514,0.87024 l -10.35182,-2.07947 c -5.8048,-0.0243 -9.03065,0.008 -10.64226,0.0419 -1.38549,0.0916 -2.19588,0.046 0,0 3.00922,-0.19886 8.74178,-1.05275 -7.62433,-4.01733 -3.05449,-0.5533 -6.19446,0.75925 -9.30485,0.68937 -8.5554,-0.19222 -16.48663,-3.59698 -25.07083,-3.39516 -17.0003,-1.01941 4.68339,0.41437 12.83539,-0.44751 2.0429,-0.21598 -3.99457,-0.91305 -6.00427,-1.3198 -1.63211,-0.33041 -3.29168,-0.5389 -4.91858,-0.8909 -7.3502,-1.59015 -1.9581,-1.16705 -9.5436,-1.2201 -13.34759,6.34177 -2.36106,2.00715 -33.17885,1.71929 -2.25981,-0.0212 -4.66911,-0.53928 -6.77582,0.22635 -26.3221,9.56604 7.22315,3.08776 -22.64617,10.10065 -4.59438,1.07876 -9.35953,1.37285 -14.03945,2.05931 -4.69699,-1.43616 -9.39411,-2.87208 -14.09113,-4.30827 3.79161,-0.0916 14.58532,1.61484 11.37502,-0.2749 -4.2723,-2.51481 -10.11415,-0.71792 -15.01044,-1.86502 -4.7034,-1.10186 -8.80208,-4.15933 -13.59607,-4.8369 -15.9413,-2.25306 -10.99489,0.70538 -8.08479,2.06396 2.30071,0.9249 1.43391,0.66942 0,0 -1.49739,-0.60195 -4.29062,-1.68645 -9.28831,-3.53414 -2.2556,-0.66104 -4.42955,-1.65426 -6.76703,-1.98284 -1.93241,-0.27165 -3.91234,0.0372 -5.85804,0.20825 -9.18921,0.80767 -18.39648,1.51805 -27.53526,2.72698 -2.06592,0.27326 -3.90076,1.71109 -5.98723,1.70738 -2.03423,-0.004 -3.8336,-2.15455 -5.81621,-1.72857 -3.8794,0.83351 -7.02934,3.49617 -10.54404,5.24412 -4.1406,1.14578 -8.10779,3.26686 -12.42198,3.43699 -0.063,0.003 -0.13149,0 -0.1969,0 0.096,0.0471 0.19442,0.0899 0.28991,0.13848 3.89411,1.98252 -10.6394,0.92853 -13.0116,-2.57556 -0.31782,-0.46942 -0.39212,-0.76322 -0.27493,-0.92242 -0.8168,-0.14438 -1.63113,-0.29305 -2.43602,-0.45786 -14.80201,-3.03098 -11.80214,-2.38514 -25.42532,-1.01854 -9.05402,-1.47145 -11.15203,-2.34198 -20.02515,-1.90738 -2.90259,0.14219 -5.74448,0.93652 -8.64907,1.0351 -10.94071,0.37121 -21.92232,-0.36941 -32.84141,0.37259 -7.27242,0.49419 -13.77019,5.28243 -21.35788,4.41987 -4.23968,-0.0243 -8.5018,-0.47988 -12.7191,-0.0729 -6.38522,0.61629 -26.15343,6.16887 -32.82231,2.75333 -3.53348,-1.80969 14.94849,-0.0803 11.80188,-2.43345 -1.93202,-1.44489 -27.85243,-0.93864 -30.84928,-0.91829 -7.12166,-0.38849 -19.0373,-0.95954 -26.207194,-1.65724 -4.38397,-0.42662 -8.71681,-1.90098 -13.11238,-1.59629 -4.07229,0.28229 -7.6485,3.11036 -11.72589,3.31814 -17.46488,0.88995 -34.98032,-1.39628 -52.46555,-0.7984 -0.17404,-0.0103 -28.6067001,-1.70141 -28.7351801,-1.69964 -5.3666999,0.0738 -10.7142999,1.85201 -16.0450199,1.26659 -4.77623,-0.52453 -9.1031,-2.91131 -13.5935,-4.5217 -13.79334,-4.9466 -10.5742,-3.74621 -22.29578,-10.27017 -4.56591,-0.8508 -9.19734,-1.43696 -13.6984,-2.54971 -1.60266,-0.39622 -3.04993,-1.56877 -4.70617,-1.50429 -2.54902,0.0992 -4.84174,1.57284 -7.35666,1.97403 -2.21382,0.35314 -4.48773,0.1823 -6.73137,0.27337 -2.68478,0.47249 -5.36954,0.94501 -8.05429,1.41747 -3.122316,0.59087 -6.182776,1.68175 -9.366856,1.7725 -3.38108,0.0964 -12.7045,-3.19709 -10.06398,-1.21904 4.18473,3.13489 12.07741,0.92781 15.15618,5.0338 2.56029,3.4145 -8.70313,-1.91463 -13.1377,-2.34198 -28.51465,-2.74786 -19.51707,-1.14332 -12.1321,-0.0279 9.39837,1.30416 5.10569,0.77115 0,0 -3.20619,-0.44492 -7.95652,-1.0968 -14.87091,-2.03348 -28.67959,3.96422 6.93248,1.0346 -22.9366,-3.5605 -10.0648,-1.54839 -20.37627,-0.91284 -30.56453,-1.36943 -2.1567,-1.76898 -3.84995,-4.21632 -6.47041,-5.30717 -8.12848,-3.38373 -7.66985,-3.28991 -10.37715,-0.26665 1.84997,1.56295 3.30986,1.65778 0.58963,3.70883 -1.34189,1.01182 -6.10272,1.97736 -4.45606,2.45308 5.43978,1.57152 12.38697,-1.89809 17.03308,1.18028 5.38453,3.56764 -25.93949,10.32727 -19.59211,2.64221 -4.18401,0.15126 -8.38231,0.0927 -12.55167,0.45373 -4.33681,0.37545 -8.57599,1.8016 -12.93101,1.75234 -4.70231,-0.0532 -9.23483,-2.16273 -13.93608,-2.05621 -12.59348,0.2854 -25.03956,2.97635 -37.63388,3.22461 -7.45017,0.14687 -14.3854,-4.65445 -21.98574,-3.78685 -3.47411,0.0348 -6.95547,-0.11129 -10.4221,0.1044 -3.48856,0.21704 -6.95404,1.67921 -10.41125,1.19166 -29.05034,-4.09662 12.52371,-4.10154 -15.36445,-4.62711 -1.26365,-0.0238 -3.53431,0.0119 -5.59292,0.0832 3.70387,0.17722 7.40778,0.3561 11.11196,0.52657 -4.93778,-0.0132 -9.9098,0.50239 -14.81356,-0.0393 -1.82806,-0.20193 0.70342,-0.38362 3.7016,-0.48731 -7.82505,-0.37447 -15.65027,-0.74793 -23.47818,-1.06505 -3.52044,-0.14264 -7.0686,0.15054 -10.56782,-0.23773 -3.06671,-0.34028 -5.95461,-1.67931 -9.03045,-1.93734 -2.5143,-0.21095 -5.1277,1.20957 -7.55044,0.54621 -17.25879,-4.72575 5.6846,-3.25011 -6.49626,-3.684 -2.43094,1.52677 -4.46595,3.86638 -7.29258,4.58059 -2.12524,0.537 -4.30011,-1.17517 -6.49986,-1.09553 -3.00228,0.10869 -5.88134,1.15729 -8.83925,1.65052 -3.26858,0.54513 -13.11926,0.99852 -9.8366,1.464 5.05505,0.71683 10.29063,-1.54157 15.32102,-0.68625 3.46985,0.58999 -6.97045,1.00912 -10.45568,1.5136 -3.62267,0.50451 -7.21619,1.77517 -10.86807,1.5136 -32.21181,-2.30709 6.65345,-4.21373 -23.91791,-4.96559 -14.478,-0.35608 -28.43689,11.24571 -43.44491,0.5457 -3.50586,-0.33121 -6.62209,-2.25512 -9.93325,-3.38272 -3.1606,-0.25266 -6.34838,-0.29745 -9.48211,-0.75759 -2.04454,-0.30019 -14.88263,-3.40233 -17.05684,-3.78116 -3.2122,-0.55967 -12.14326,-1.1394 -15.04767,-1.86449 -0.91395,-0.22815 -1.78721,-0.56483 -2.64737,-0.93742 -5.70315,1.85232 -11.95414,2.37363 -17.98807,2.55593 -2.45951,0.0743 4.11157,-2.6666 6.46835,-3.32899 2.59323,-0.72882 5.38855,-0.5071 8.0827,-0.76067 1.16049,0.47132 2.28656,1.03539 3.43702,1.53373 1.0968,-0.35623 2.17548,-0.75628 3.22614,-1.21851 2.22126,-0.97724 -4.431,-2.11545 -6.84143,-2.54921 -9.83481,-1.76977 -8.8862,-0.28337 -17.01189,4.65244 -19.31572,2.2208 -18.35867,2.76272 -46.15532,-0.69506 -2.92786,-0.3642 -5.1543,-3.2266 -8.10493,-3.35069 -3.29708,-0.13867 -6.20049,2.67383 -9.50018,2.61017 -2.06703,-0.0399 -3.58296,-1.93135 -5.37435,-2.89698 -1.87235,0.2734 -3.74439,0.54671 -5.61674,0.82011 -2.45694,0.34734 -4.89278,0.87418 -7.3711,1.0423 -0.0838,0.006 -0.18669,0.007 -0.28062,0.0108 5.33514,0.73348 12.29529,1.75263 8.91987,2.24224 -5.50069,0.79788 -11.1616,-0.86164 -16.52354,-2.26033 -2.45058,-0.63918 4.76128,0.1294 7.60367,0.018 -1.54355,-0.21222 -2.97492,-0.40402 -3.95118,-0.5478 -4.10372,-0.6042 -8.26971,-1.036 -12.42248,-0.93379 -3.67482,0.0905 -7.27337,1.00563 -10.90994,1.50844 -11.77628,-0.50633 -23.66369,0.075 -35.32859,-1.51929 -2.77395,-0.37912 -4.42619,-3.37904 -7.06107,-4.27466 -2.08664,-0.70924 -4.43127,-0.26485 -6.64765,-0.38446 -2.43526,-0.13148 -4.88326,-0.31888 -7.32462,-0.30129 z M 301.078,310.14097 c 1.08021,0.19095 2.1654,0.37486 3.24889,0.5674 -1.70269,-0.58592 -2.98119,-0.93115 -3.24889,-0.5674 z m 3.24889,0.5674 c 2.9848,1.02714 7.27234,2.79064 9.74773,2.7921 -3.0126,-1.47331 -6.36262,-2.19044 -9.74773,-2.7921 z m 417.06809,1.2046 c -1.37171,0.11911 -2.68518,0.27302 -1.86137,0.19687 0.62058,-0.0574 1.24118,-0.12499 1.86137,-0.19687 z"
       style="color:#000000;clip-rule:nonzero;display:inline;overflow:visible;visibility:visible;opacity:1;isolation:auto;mix-blend-mode:normal;color-interpolation:sRGB;color-interpolation-filters:linearRGB;solid-color:#000000;solid-opacity:1;fill:#ffffff;fill-opacity:1;fill-rule:nonzero;stroke:none;stroke-width:0.64458698;stroke-linecap:butt;stroke-linejoin:round;stroke-miterlimit:4;stroke-dasharray:none;stroke-dashoffset:0;stroke-opacity:1;paint-order:markers fill stroke;color-rendering:auto;image-rendering:auto;shape-rendering:auto;text-rendering:auto;enable-background:accumulate" />
  </g>
</svg>
