<?xml version="1.0" encoding="UTF-8" standalone="no"?>
<svg
   xmlns:dc="http://purl.org/dc/elements/1.1/"
   xmlns:cc="http://creativecommons.org/ns#"
   xmlns:rdf="http://www.w3.org/1999/02/22-rdf-syntax-ns#"
   xmlns:svg="http://www.w3.org/2000/svg"
   xmlns="http://www.w3.org/2000/svg"
   id="svg834"
   version="1.1"
   viewBox="0 0 1920.0001 72.178744"
   height="272.80154"
   width="7256.6934">
  <defs
     id="defs828" />
  <metadata
     id="metadata831">
    <rdf:RDF>
      <cc:Work
         rdf:about="">
        <dc:format>image/svg+xml</dc:format>
        <dc:type
           rdf:resource="http://purl.org/dc/dcmitype/StillImage" />
        <dc:title></dc:title>
      </cc:Work>
    </rdf:RDF>
  </metadata>
  <g
     transform="translate(852.96448,-433.72714)"
     id="layer1">
    <path
       style="color:#000000;clip-rule:nonzero;display:inline;overflow:visible;visibility:visible;opacity:1;isolation:auto;mix-blend-mode:normal;color-interpolation:sRGB;color-interpolation-filters:linearRGB;solid-color:#000000;solid-opacity:1;fill:#ffffff;fill-opacity:1;fill-rule:nonzero;stroke:none;stroke-width:0.64458698;stroke-linecap:butt;stroke-linejoin:round;stroke-miterlimit:4;stroke-dasharray:none;stroke-dashoffset:0;stroke-opacity:1;paint-order:markers fill stroke;color-rendering:auto;image-rendering:auto;shape-rendering:auto;text-rendering:auto;enable-background:accumulate"
       d="m -520.93771,505.90465 c -0.89758,-0.006 -1.7939,-0.0426 -2.68873,-0.11729 4.07062,-1.00883 8.1474,-2.03182 11.21482,-4.577 2.24885,-1.866 -6.01126,-0.42217 -9.01287,-0.27284 -3.77434,0.18777 -7.50504,1.71466 -11.25617,1.28106 -24.15395,-2.79173 -16.65941,-3.67475 -10.1849,-3.91811 8.84828,-0.0179 4.69445,-0.17643 0,0 -2.9941,0.006 -7.46794,-0.004 -13.92216,-0.0496 -22.57674,-3.42834 -13.77228,-3.07793 -47.20797,1.91823 -1.06705,-1.12874 -2.03593,-2.05319 -2.76262,-2.54921 -8.78797,-5.99837 -20.05071,-8.74043 -30.45809,-10.59315 -17.3065,-3.08094 -24.60835,-2.44168 -42.3783,-2.70216 -13.77061,1.036 -27.71053,0.35324 -40.99801,2.23552 -8.21981,-4.77322 -31.76868,-6.92497 -38.22407,-7.83104 -8.0706,-2.54169 -15.7533,-6.70451 -24.2119,-7.62486 -9.3761,-1.02018 -18.8544,1.00978 -28.2438,1.91719 -29.208,2.82279 -21.3906,2.93677 -41.692,6.17948 V 433.72714 H 1067.0356 v 20.28817 c -0.8076,-0.0539 -1.6176,-0.10789 -2.5197,-0.15761 -51.7348,-2.85162 -28.0969,-1.35488 -57.5577,4.55684 -25.69915,5.15686 -2.2443,-1.76908 -24.82587,5.59036 -1.30349,0.2454 -2.40448,0.4677 -3.43029,0.67593 -2.36239,-1.13686 -4.94721,-2.28656 -5.6736,-2.7523 0.27321,-0.009 0.5773,-0.0208 0.8444,-0.0289 -1.08739,-0.27909 -1.2449,-0.22781 -0.8444,0.0289 -5.65441,0.18817 -12.5169,0.54816 -17.95441,-0.22479 -3.66919,-0.52155 -7.10708,-2.19626 -10.8014,-2.52543 -12.27069,-1.09325 -24.62779,-1.04097 -36.93218,-1.72701 -4.4069,-0.24575 -8.79362,-1.39076 -13.19501,-1.06818 -3.90549,0.28626 -7.5641,1.91106 -11.3461,2.8665 -3.87139,0.2467 -7.7792,0.18682 -11.61431,0.74001 -3.34608,0.48266 -6.45459,2.37271 -9.8402,2.3549 -4.15489,-0.0219 -8.03479,-2.70529 -12.18219,-2.47065 -3.35761,0.18997 -5.96389,3.22061 -9.29089,3.68556 -3.5918,0.50197 -7.23662,-0.58028 -10.85512,-0.87024 l -10.3519,2.07947 c -5.8048,0.0243 -9.0306,-0.008 -10.6422,-0.0419 -1.38549,-0.0916 -2.19588,-0.046 0,0 3.00921,0.19886 8.74181,1.05275 -7.62439,4.01733 -3.05441,0.5533 -6.1944,-0.75925 -9.30479,-0.68937 -8.55541,0.19222 -16.48661,3.59698 -25.07081,3.39516 -17.0003,1.01941 4.68339,-0.41437 12.83539,0.44751 2.0429,0.21598 -3.9946,0.91305 -6.00429,1.3198 -1.63211,0.33041 -3.29171,0.5389 -4.91861,0.8909 -7.3502,1.59015 -1.9581,1.16705 -9.5436,1.2201 -13.34759,-6.34177 -2.36109,-2.00715 -33.1788,-1.71929 -2.25989,0.0211 -4.6691,0.53928 -6.7759,-0.22635 -26.3221,-9.56603 7.2232,-3.08776 -22.64609,-10.10065 -4.59441,-1.07876 -9.35961,-1.37284 -14.0395,-2.05931 -4.69699,1.43616 -9.39411,2.87208 -14.0911,4.30827 3.79158,0.0916 14.58529,-1.61483 11.37499,0.2749 -4.27231,2.51481 -10.1141,0.71792 -15.01039,1.86502 -4.7034,1.10186 -8.80211,4.15933 -13.5961,4.8369 -15.9413,2.25306 -10.99492,-0.70538 -8.08482,-2.06396 2.30071,-0.9249 1.43391,-0.66942 0,0 -1.49738,0.60195 -4.29059,1.68645 -9.28827,3.53415 -2.25563,0.66103 -4.42953,1.65425 -6.76701,1.98284 -1.93241,0.27164 -3.9124,-0.0372 -5.85812,-0.20826 -9.18919,-0.80767 -18.3964,-1.51804 -27.53518,-2.72698 -2.066,-0.27326 -3.90081,-1.71109 -5.98731,-1.70738 -2.0342,0.004 -3.8336,2.15455 -5.81621,1.72857 -3.8794,-0.83351 -7.02929,-3.49617 -10.54399,-5.24412 -4.14059,-1.14577 -8.10781,-3.26686 -12.422,-3.43699 -0.063,-0.002 -0.1315,5.3e-4 -0.1969,5.3e-4 0.096,-0.0471 0.19441,-0.0899 0.2899,-0.1385 3.89411,-1.98251 -10.6394,-0.92852 -13.0116,2.57556 -0.31779,0.46944 -0.39211,0.76323 -0.2749,0.92243 -0.8168,0.14437 -1.6311,0.29305 -2.43599,0.45786 -14.80201,3.03099 -11.80222,2.38513 -25.4254,1.01854 -9.05402,1.47145 -11.15201,2.34199 -20.0251,1.90738 -2.90261,-0.14219 -5.7445,-0.93653 -8.64912,-1.0351 -10.94068,-0.37121 -21.92229,0.36941 -32.84138,-0.3726 -7.27242,-0.49418 -13.77022,-5.28243 -21.35791,-4.41985 -4.2396,0.0243 -8.5018,0.47987 -12.7191,0.0729 -6.38519,-0.6163 -26.1534,-6.16886 -32.82225,-2.75333 -3.53351,1.8097 14.94848,0.0803 11.80187,2.43344 -1.93204,1.44489 -27.85242,0.93865 -30.84928,0.9183 -7.12168,0.38848 -19.0373,0.95953 -26.20719,1.65725 -4.38396,0.42661 -8.7168,1.90097 -13.11238,1.59628 -4.07228,-0.28228 -7.64852,-3.11036 -11.72588,-3.31814 -17.46488,-0.88995 -34.98035,1.39629 -52.46556,0.79841 -0.17406,0.0103 -28.60669,1.7014 -28.73517,1.69963 -5.36673,-0.0738 -10.71431,-1.85201 -16.04503,-1.26659 -4.77625,0.52454 -9.10309,2.91131 -13.59349,4.5217 -13.79334,4.9466 -10.57424,3.74621 -22.29581,10.27018 -4.56589,0.85079 -9.19734,1.43695 -13.69838,2.54971 -1.60266,0.39621 -3.04993,1.56876 -4.70617,1.50429 -2.54902,-0.0992 -4.84177,-1.57285 -7.35666,-1.97403 -2.21382,-0.35314 -4.48773,-0.1823 -6.73137,-0.27337 -2.68478,-0.47249 -5.36956,-0.94501 -8.05428,-1.41748 -3.12233,-0.59087 -6.18279,-1.68175 -9.36687,-1.7725 -3.38108,-0.0964 -12.70452,3.1971 -10.06398,1.21904 4.18473,-3.13489 12.07741,-0.92781 15.15618,-5.03381 2.5603,-3.41449 -8.70315,1.91464 -13.1377,2.342 -28.514647,2.74785 -19.51707,1.14331 -12.1321,0.0279 9.39837,-1.30415 5.10569,-0.77115 0,0 -3.20619,0.44492 -7.95652,1.09681 -14.87093,2.03348 -28.679587,-3.96423 6.93248,-1.0346 -22.936567,3.5605 -10.0648,1.5484 -20.37628,0.91283 -30.56456,1.36943 -2.15667,1.76898 -3.84993,4.21632 -6.47039,5.30717 -8.12847,3.38373 -7.66987,3.28991 -10.37714,0.26665 1.84997,-1.56295 3.30986,-1.65777 0.5896,-3.70882 -1.34186,-1.01182 -6.1027,-1.97737 -4.45606,-2.45309 5.43978,-1.57152 12.38697,1.8981 17.03308,-1.18028 5.38456,-3.56764 -25.93946,-10.32728 -19.59208,-2.6422 -4.18404,-0.15127 -8.38232,-0.0927 -12.55167,-0.45374 -4.3368403,-0.37544 -8.5760203,-1.8016 -12.9310103,-1.75233 -4.70231,0.0532 -9.2348297,2.16273 -13.9360797,2.05621 -12.59348,-0.28541 -25.03956,-2.97636 -37.63391,-3.22461 -7.45014,-0.14687 -14.38537,4.65444 -21.98571,3.78685 -3.47412,-0.0348 -6.9555,0.11128 -10.4221,-0.10441 -3.48859,-0.21704 -6.95404,-1.6792 -10.41128,-1.19166 -29.050353,4.09663 12.52374,4.10155 -15.364463,4.62712 -1.26365,0.0238 -3.53427,-0.012 -5.59289,-0.0832 3.70387,-0.17721 7.40778,-0.3561 11.11197,-0.52657 -4.93779,0.0131 -9.90984,-0.50239 -14.81357,0.0393 -1.82806,0.20193 0.70339,0.38361 3.7016,0.4873 -7.82505,0.37447 -15.65026,0.74793 -23.47817,1.06506 -3.52044,0.14264 -7.06861,-0.15055 -10.56783,0.23773 -3.06671,0.34028 -5.95464,1.67931 -9.03044,1.93732 -2.51431,0.21096 -5.12771,-1.20956 -7.55044,-0.5462 -17.2588,4.72575 5.68459,3.25012 -6.49627,3.68401 -2.43094,-1.52678 -4.46598,-3.86638 -7.29257,-4.5806 -2.12524,-0.537 -4.30012,1.17517 -6.49986,1.09553 -3.00228,-0.10869 -5.88135,-1.15728 -8.83926,-1.65052 -3.26861,-0.54512 -13.11926,-0.99851 -9.8366,-1.46399 5.05505,-0.71684 10.29063,1.54157 15.32102,0.68625 3.46982,-0.59 -6.97048,-1.00912 -10.45567,-1.51361 -3.62268,-0.5045 -7.2162,-1.77516 -10.86811,-1.5136 -32.21178,2.30709 6.65345,4.21373 -23.91791,4.9656 -14.478,0.35607 -28.43686,-11.24572 -43.4449,-0.54571 -3.50584,0.33121 -6.62207,2.25513 -9.93323,3.38273 -3.16063,0.25265 -6.34838,0.29744 -9.48211,0.75758 -2.04454,0.3002 -14.88265,3.40233 -17.05684,3.78116 -3.2122,0.55967 -12.14326,1.1394 -15.04765,1.86449 -0.91395,0.22815 -1.78723,0.56483 -2.64739,0.93742 -5.70315,-1.85232 -11.95414,-2.37363 -17.98807,-2.55593 -2.45951,-0.0743 4.11157,2.66661 6.46835,3.32899 2.59323,0.72882 5.38856,0.5071 8.0827,0.76068 1.16049,-0.47133 2.28656,-1.0354 3.43702,-1.53374 1.0968,0.35624 2.17548,0.75629 3.22614,1.21851 2.22126,0.97724 -4.431,2.11545 -6.84143,2.54921 -9.83478,1.76977 -8.88619,0.28337 -17.01187,-4.65243 -19.31574,-2.22081 -18.35869,-2.76273 -46.15534,0.69506 -2.92783,0.3642 -5.1543,3.22659 -8.10493,3.35068 -3.29708,0.13867 -6.20048,-2.67383 -9.50018,-2.61017 -2.06703,0.0399 -3.58296,1.93136 -5.37435,2.89698 -1.87235,-0.27339 -3.74436,-0.54671 -5.61671,-0.8201 -2.45697,-0.34735 -4.89281,-0.87419 -7.37113,-1.0423 -0.0838,-0.006 -0.18669,-0.007 -0.28062,-0.0109 5.33514,-0.73347 12.29532,-1.75262 8.91987,-2.24223 -5.50068,-0.79788 -11.1616,0.86164 -16.52354,2.26033 -2.45057,0.63918 4.76128,-0.12941 7.60367,-0.0181 -1.54355,0.21223 -2.97492,0.40402 -3.95118,0.5478 -4.10369,0.6042 -8.26971,1.036 -12.42248,0.93379 -3.67482,-0.0905 -7.27337,-1.00563 -10.90993,-1.50844 -11.77629,0.50633 -23.6637,-0.075 -35.3286,1.51929 -2.77394,0.37912 -4.42619,3.37904 -7.06107,4.27466 -2.08663,0.70924 -4.43127,0.26485 -6.64765,0.38447 -2.43526,0.13147 -4.88326,0.31887 -7.32462,0.30128 z M 544.93213,467.72559 c 1.08021,-0.19095 2.1654,-0.37486 3.2489,-0.5674 -1.7027,0.58592 -2.98119,0.93115 -3.2489,0.5674 z m 3.2489,-0.5674 c 2.98479,-1.02714 7.27231,-2.79064 9.7477,-2.79209 -3.0126,1.4733 -6.3626,2.19043 -9.7477,2.79209 z m 417.06811,-1.20459 c -1.37171,-0.11912 -2.6852,-0.27303 -1.8614,-0.19688 0.62061,0.0574 1.24119,0.12499 1.8614,0.19688 z"
       id="path3456" />
  </g>
</svg>
